<?xml version="1.0" encoding="utf-8"?>
<!-- Generator: Adobe Illustrator 26.2.1, SVG Export Plug-In . SVG Version: 6.00 Build 0)  -->
<svg version="1.1" id="Layer_1" xmlns="http://www.w3.org/2000/svg" xmlns:xlink="http://www.w3.org/1999/xlink" x="0px" y="0px"
	 viewBox="0 0 1553.2 556.8" style="enable-background:new 0 0 1553.2 556.8;" xml:space="preserve">
<style type="text/css">
	.st0{fill:#FFFFFF;}
	.st1{clip-path:url(#SVGID_00000093862356763000443670000008857055669098708915_);fill:#FFFFFF;}
</style>
<path class="st0" d="M185.7,188v184.2h38.1v-22.7c7.1,9.1,14.4,14.9,26,19.2c11.6,4.5,25.5,6.8,42,6.8c24.5,0,43.8-5.3,58-15.6
	c14.2-10.3,21.1-27.5,21.1-51.2s-7-40.9-21.1-51.2c-14.2-10.3-33.5-15.6-58-15.6c-16,0-29.6,2-40.7,6.3c-11.3,4.3-18.4,8.2-26,16.7
	V188H185.7z M331.2,314.7c0,12.9-4.4,22-13.4,27c-9,5.3-19.9,7.8-36.9,7.8c-17.8,0-27.8-2.5-36.8-7.8c-9-5-13.7-14.1-13.7-27v-12.1
	c0-12.9,4.4-21.7,13.4-27s19-7.8,37.1-7.8c17,0,27.9,2.5,36.9,7.8s13.4,14.1,13.4,27V314.7z"/>
<g>
	<defs>
		<rect id="SVGID_1_" x="186.2" y="190.5" width="1181.7" height="184.5"/>
	</defs>
	<clipPath id="SVGID_00000142143520232609110110000001434138532467010748_">
		<use xlink:href="#SVGID_1_"  style="overflow:visible;"/>
	</clipPath>
	<path style="clip-path:url(#SVGID_00000142143520232609110110000001434138532467010748_);fill:#FFFFFF;" d="M615,372.3h-41.4
		l62.1-181.3h41.4L615,372.3z"/>
	<path style="clip-path:url(#SVGID_00000142143520232609110110000001434138532467010748_);fill:#FFFFFF;" d="M684.2,372.3h-41.4
		l62.1-181.3h41.4L684.2,372.3z"/>
	<path style="clip-path:url(#SVGID_00000142143520232609110110000001434138532467010748_);fill:#FFFFFF;" d="M1018.4,243.2
		c-67.8,0-92.3,19.9-92.3,65.9c0,46,24.5,65.9,92.3,65.9c67.8,0,92.3-19.9,92.3-65.9C1110.7,263.1,1086.3,243.2,1018.4,243.2z
		 M1018.2,349.2c-38.8,0-52.9-12.2-52.9-40.3s14-40.3,52.9-40.3c38.8,0,52.8,12.2,52.8,40.3S1057,349.2,1018.2,349.2z"/>
	<path style="clip-path:url(#SVGID_00000142143520232609110110000001434138532467010748_);fill:#FFFFFF;" d="M291.9,243.2
		c-33.6,0-54.5,7.5-66.5,22.2v-74.3h-39.2v181.3h39.2v-19.5c11.9,14.7,33,22.2,66.5,22.2c58,0,79-25.8,79-65.9
		S349.9,243.2,291.9,243.2z M278.3,349.2c-39.2,0-53.4-12.2-53.4-40.3s14.2-40.3,53.4-40.3c39.2,0,53.4,12.2,53.4,40.3
		S317.5,349.2,278.3,349.2z"/>
	<path style="clip-path:url(#SVGID_00000142143520232609110110000001434138532467010748_);fill:#FFFFFF;" d="M563.6,314.8
		c0-1.8,0.1-3.7,0.1-5.7c0-46-26.7-65.9-87.4-65.9c-60.8,0-87.5,19.9-87.5,65.9c0,46,26.7,65.9,87.5,65.9c48.9,0,75.7-12.9,84.3-42
		h-41.5c-6.7,11.1-20.1,16.1-42.9,16.1c-32.8,0-46.1-10.5-48-34.4H563.6z M476.3,268.5c27.7,0,41.6,7.5,46.3,24.2H430
		C434.7,276,448.6,268.5,476.3,268.5z"/>
	<path style="clip-path:url(#SVGID_00000142143520232609110110000001434138532467010748_);fill:#FFFFFF;" d="M1326,350.8
		c-9.3,0-17.4-4.3-17.4-17.7v-64.5h54.5v-22.1h-54.6v-55.9h-39.2v55.9h-84.9v-16.6c0-13.4,8.2-17.7,17.5-17.7h42v-21.6h-51.2
		c-32.2,0-47.4,12.9-47.4,40.9v15h-21.8v22.1h21.8v103.8h39.2V268.5h85v62.9c0,28,15.3,40.9,47.4,40.9h51.2v-21.5H1326z"/>
	<path style="clip-path:url(#SVGID_00000142143520232609110110000001434138532467010748_);fill:#FFFFFF;" d="M781.2,280.6
		c0-10.4,10.8-14.8,43.6-14.8c29.4,0,35.4,6.5,37.6,16.1h43.4c-6.3-26.3-29.2-38.7-80.7-38.7c-66.2,0-82,18.8-82,39.3
		c0,51.1,126.4,24.2,126.4,51.9c0,10.4-11.9,14.8-44.7,14.8c-32.5,0-42.5-6.5-44.7-16.7h-40.3c5.4,31.2,30.3,42.5,83.9,42.5
		c67.8,0,85.5-18.2,85.5-41.6C909.2,278.2,781.2,309.4,781.2,280.6z"/>
</g>
</svg>
